<svg width="200" height="200" viewBox="0 0 200 200" fill="none" xmlns="http://www.w3.org/2000/svg">
  <!-- Background Glow -->
  <circle cx="100" cy="100" r="80" fill="#E0F2FE" fill-opacity="0.5"/>
  
  <!-- Tablet/Device (The "One Place") -->
  <rect x="50" y="40" width="100" height="130" rx="12" fill="#334155"/>
  <rect x="58" y="50" width="84" height="110" rx="4" fill="#F8FAFC"/>
  <rect x="92" y="164" width="16" height="2" rx="1" fill="#94A3B8"/>

  <!-- Book (Course Materials) -->
  <path d="M70 75H110V115C110 117.209 108.209 119 106 119H70V75Z" fill="#38BDF8"/>
  <path d="M70 75H74V119H70V75Z" fill="#0EA5E9"/>
  <rect x="80" y="85" width="20" height="3" rx="1.5" fill="white" fill-opacity="0.8"/>
  <rect x="80" y="93" width="15" height="3" rx="1.5" fill="white" fill-opacity="0.8"/>

  <!-- Syllabus (Checklist) -->
  <rect x="100" y="65" width="35" height="45" rx="4" fill="white" stroke="#94A3B8" stroke-width="2"/>
  <circle cx="108" cy="75" r="2" fill="#22C55E"/>
  <rect x="114" y="74" width="14" height="2" rx="1" fill="#CBD5E1"/>
  <circle cx="108" cy="85" r="2" fill="#22C55E"/>
  <rect x="114" y="84" width="14" height="2" rx="1" fill="#CBD5E1"/>
  <circle cx="108" cy="95" r="2" fill="#22C55E"/>
  <rect x="114" y="94" width="10" height="2" rx="1" fill="#CBD5E1"/>

  <!-- Lecture Slides/Notes -->
  <rect x="85" y="110" width="45" height="35" rx="4" fill="#F472B6"/>
  <path d="M92 120L100 127.5L92 135V120Z" fill="white"/>
  <rect x="105" y="122" width="18" height="2" rx="1" fill="white" fill-opacity="0.7"/>
  <rect x="105" y="130" width="12" height="2" rx="1" fill="white" fill-opacity="0.7"/>

  <!-- Floating "Anytime" Signal -->
  <path d="M155 55C155 49.4772 150.523 45 145 45" stroke="#38BDF8" stroke-width="3" stroke-linecap="round"/>
  <path d="M165 55C165 43.9543 156.046 35 145 35" stroke="#38BDF8" stroke-width="3" stroke-opacity="0.4" stroke-linecap="round"/>
</svg>